<?xml version="1.0" encoding="iso-8859-1"?>
<!-- Generator: Adobe Illustrator 19.0.0, SVG Export Plug-In . SVG Version: 6.00 Build 0)  -->
<svg version="1.1" id="Capa_1" xmlns="http://www.w3.org/2000/svg" xmlns:xlink="http://www.w3.org/1999/xlink" x="0px" y="0px"
	 viewBox="0 0 512 512" style="enable-background:new 0 0 512 512;" xml:space="preserve">
<g>
	<path style="fill:#AEAFB0;" d="M325.909,496.418c-3.321,0-6.387-2.166-7.379-5.513c-1.209-4.077,1.116-8.361,5.193-9.57
		c100.172-29.698,170.133-123.488,170.133-228.079c0-131.155-106.702-237.857-237.857-237.857c-28.606,0-56.572,5.022-83.126,14.927
		c-3.981,1.488-8.418-0.538-9.904-4.523c-1.486-3.984,0.538-8.418,4.523-9.904C195.773,5.348,225.551,0,256,0
		c67.647,0,131.246,26.343,179.079,74.177s74.177,111.432,74.177,179.079c0,55.708-17.739,108.559-51.301,152.839
		c-32.472,42.841-78.588,74.805-129.855,90.004C327.371,496.315,326.633,496.418,325.909,496.418z"/>
	<path style="fill:#AEAFB0;" d="M186.231,496.46c-0.724,0-1.458-0.103-2.187-0.318c-51.302-15.176-97.454-47.134-129.954-89.988
		C20.499,361.861,2.744,308.991,2.744,253.256c0-43.564,11.247-86.528,32.524-124.248c20.625-36.566,50.314-67.735,85.857-90.141
		c3.597-2.268,8.351-1.19,10.619,2.407s1.19,8.351-2.407,10.619C59.71,95.784,18.143,171.06,18.143,253.256
		c0,104.658,70.018,198.465,170.269,228.119c4.078,1.206,6.405,5.489,5.199,9.567C192.62,494.291,189.553,496.46,186.231,496.46z"/>
	<path style="fill:#AEAFB0;" d="M362.569,356.837h68.082c3.969,0,7.186-3.217,7.186-7.186v-15.24c0-3.969-3.217-7.186-7.186-7.186
		h-68.082H149.43H81.348c-3.969,0-7.186,3.217-7.186,7.186v15.24c0,3.969,3.217,7.186,7.186,7.186h68.082H362.569z"/>
</g>
<path style="fill:#48C2E0;" d="M353.78,425.322l-42.732-214.476l-107.403-21.302l-46.178,235.779
	c-4.095,20.733,4.948,41.559,22.218,52.869l-4.81,24.632c-0.815,4.173,1.907,8.218,6.08,9.032c0.498,0.098,0.995,0.145,1.484,0.145
	c3.609,0,6.831-2.55,7.548-6.225l54.921-281.276l23.273,5.644c-0.257,1.054-0.301,2.177-0.076,3.312l54.049,272.344
	c0.727,3.665,3.944,6.203,7.544,6.203c0.496,0,1.001-0.048,1.507-0.149c4.171-0.827,6.881-4.879,6.053-9.05l-4.978-25.084
	C349.084,466.303,357.819,445.766,353.78,425.322z"/>
<path style="opacity:0.1;enable-background:new    ;" d="M271.676,356.836h9.713c0.567,0,1.026-3.217,1.026-7.186v-15.24
	c0-3.969-0.459-7.186-1.026-7.186h-9.713h-30.41h-9.713c-0.567,0-1.026,3.217-1.026,7.186v15.24c0,3.969,0.459,7.186,1.026,7.186
	h9.713H271.676z"/>
<path style="fill:#AEAFB0;" d="M263.22,375.654h-15.192c-2.834,0-5.133-2.299-5.133-5.133v-56.98c0-2.834,2.299-5.133,5.133-5.133
	h15.192c2.834,0,5.133,2.299,5.133,5.133v56.98C268.353,373.356,266.054,375.654,263.22,375.654z"/>
<path style="opacity:0.1;enable-background:new    ;" d="M311.747,210.846l-107.403-21.302l-11.162,56.991
	c12.925,9.324,28.108,15.71,44.576,18.173l7.851-40.211l23.273,5.644c-0.257,1.054-0.301,2.177-0.076,3.312l5.967,30.071
	c16.185-3.499,30.947-10.815,43.291-20.971L311.747,210.846z"/>
<g>
	<path style="fill:#AEAFB0;" d="M260.883,78.875h-17.09c-5.702,0-10.323-4.622-10.323-10.323V41.195
		c0-5.702,4.622-10.323,10.323-10.323h17.09c5.702,0,10.323,4.622,10.323,10.323v27.356
		C271.207,74.253,266.585,78.875,260.883,78.875z"/>
	<path style="fill:#AEAFB0;" d="M252.338,87.954c-41.682,0-75.472,33.79-75.472,75.471c0,41.682,33.79,75.472,75.472,75.472
		s75.472-33.79,75.472-75.472C327.81,121.744,294.02,87.954,252.338,87.954z M252.338,187.786
		c-13.454,0-24.361-10.907-24.361-24.361c0-13.454,10.906-24.361,24.361-24.361s24.361,10.906,24.361,24.361
		C276.7,176.88,265.792,187.786,252.338,187.786z"/>
</g>
<g style="opacity:0.1;">
	<path d="M298.022,103.363c9.662,12.683,15.409,28.509,15.409,45.684c0,41.682-33.79,75.472-75.472,75.472
		c-17.175,0-33.001-5.747-45.684-15.409c13.787,18.097,35.555,29.787,60.063,29.787c41.682,0,75.472-33.79,75.472-75.472
		C327.81,138.918,316.12,117.15,298.022,103.363z"/>
</g>
<g>
</g>
<g>
</g>
<g>
</g>
<g>
</g>
<g>
</g>
<g>
</g>
<g>
</g>
<g>
</g>
<g>
</g>
<g>
</g>
<g>
</g>
<g>
</g>
<g>
</g>
<g>
</g>
<g>
</g>
</svg>
