<svg height="512pt" viewBox="0 -117 512.00027 512" width="512pt" xmlns="http://www.w3.org/2000/svg"><g fill="#59bd8b"><path d="m419.292969 93.886719 1.957031-.003907c4.238281-.011718 8.476562-.011718 12.714844-.011718h14.394531l-.0625 24.3125h-3.757813c-7.890624.03125-15.792968.058594-23.683593.070312h-2.042969zm0 0"/><path d="m402.734375 169.863281c-3.988281 0-7.808594-1.289062-10.753906-3.625-5.625-4.460937-8.003907-12.949219-5.535157-19.746093 1.1875-3.285157 3.21875-6.011719 5.878907-7.882813 2.65625-1.867187 5.894531-2.855469 9.371093-2.855469 5.960938.023438 13.898438 3.164063 16.976563 11.949219 2.363281 6.714844-.40625 15.179687-6.308594 19.265625-2.703125 1.863281-6.121093 2.894531-9.628906 2.894531zm0 0"/><path d="m374.601562 217.855469c-3.753906 0-7.398437-1.339844-9.992187-3.675781-4.519531-4.054688-6.085937-11.285157-3.644531-16.816407 1.316406-2.988281 3.367187-5.277343 6.097656-6.796875 2.835938-1.574218 5.667969-1.902344 7.542969-1.902344.625 0 1.238281.035157 1.824219.101563 5.195312.613281 11.246093 3.992187 12.644531 11.636719 1.074219 5.964844-2.074219 12.6875-7.328125 15.644531-2.097656 1.183594-4.570313 1.808594-7.144532 1.808594zm0 0"/><path d="m251.40625 232.089844c-10.1875 0-20.453125-1.417969-30.507812-4.210938-19.886719-5.519531-36.46875-15.691406-47.949219-29.414062-12.980469-15.53125-20.097657-37.097656-19.523438-59.164063.691407-26.902343 12.90625-53.871093 32.671875-72.144531 10.167969-9.40625 22.652344-16.824219 36.105469-21.453125 10.835937-3.730469 20.613281-5.542969 29.882813-5.542969 9.210937 0 18.078124 1.785156 27.113281 5.460938 27.046875 11.023437 43.398437 23.378906 54.6875 41.316406 14.625 23.222656 18.410156 52.71875 10.125 78.898438-8.296875 26.179687-28.375 48.121093-53.707031 58.691406-12.027344 5.019531-25.117188 7.5625-38.898438 7.5625zm-.03125-138.113282c-4.078125 0-8.390625.800782-13.179688 2.445313-5.867187 2.019531-11.324218 5.265625-15.785156 9.378906-8.765625 8.105469-13.972656 19.605469-14.277344 31.542969-.25 9.722656 2.90625 19.238281 8.652344 26.105469 5.078125 6.066406 12.355469 10.546875 21.042969 12.957031 4.351563 1.210938 8.804687 1.828125 13.234375 1.828125 6.035156 0 11.765625-1.117187 17.03125-3.316406 11.128906-4.648438 19.949219-14.285157 23.59375-25.78125 3.632812-11.503907 1.972656-24.464844-4.445312-34.667969-6.277344-9.96875-15.976563-14.867188-23.722657-18.023438-4.082031-1.664062-8.050781-2.46875-12.144531-2.46875zm0 0"/><path d="m129.875 105.066406c-.695312 0-1.386719-.070312-2.050781-.207031-5.1875-1.054687-9.179688-6.847656-8.898438-12.910156l.011719-.179688.039062-.179687c.015626-.0625.03125-.160156.042969-.296875l-.003906-.28125.03125-.234375c.015625-.164063.035156-.328125.066406-.484375.503907-2.714844 1.988281-5.621094 4.179688-8.15625 2.175781-2.511719 4.863281-4.453125 7.570312-5.46875 1.433594-.535157 2.859375-.804688 4.242188-.804688 2.328125 0 4.472656.773438 6.378906 2.296875 3.023437 2.421875 4.746094 6.726563 4.394531 10.96875-.332031 3.980469-2.386718 8.074219-5.640625 11.230469-3.03125 2.945313-6.90625 4.707031-10.363281 4.707031zm0 0"/><path d="m113.585938 155.910156c-1.867188 0-3.625-.371094-5.226563-1.097656-5.441406-2.460938-8.804687-9.207031-7.496094-15.039062 1.074219-4.804688 4.6875-8.460938 9.660157-9.773438 1.203124-.316406 2.421874-.476562 3.621093-.476562 3.726563 0 7.136719 1.503906 9.605469 4.238281 4.003906 4.441406 4.386719 11.96875.859375 16.785156-2.414063 3.304687-6.636719 5.363281-11.023437 5.363281zm0 0"/><path d="m46.460938 141.226562s10.328124-.011718 14.511718-.011718 14.554688.011718 14.554688.011718l-.046875 24.273438-2.886719.03125-26.609375.078125zm0 0"/></g><path d="m251.082031 174.167969c-4.058593 0-8.152343-.5625-12.164062-1.679688-5.5-1.523437-13.269531-4.777343-19.015625-11.644531-5.121094-6.128906-7.929688-14.660156-7.707032-23.402344.273438-10.679687 5.125-21.394531 12.980469-28.660156 4.046875-3.738281 9.007813-6.6875 14.347657-8.523438 4.339843-1.488281 8.207031-2.214843 11.824218-2.214843 3.585938 0 7.066406.707031 10.640625 2.167969 10.8125 4.398437 17.335938 9.308593 21.808594 16.425781 5.800781 9.203125 7.300781 20.890625 4.011719 31.269531-3.28125 10.371094-11.242188 19.070312-21.285156 23.261719-4.773438 1.992187-9.96875 3-15.441407 3zm0 0" fill="#696b77"/><path d="m252.054688 271.722656c-35.554688 0-72.066407-6.894531-105.574219-19.9375l-1.195313-.464844-.078125-1.277343-.007812-.246094-4.523438-30.3125 20.792969-.183594c1.121094-.007812 2.027344-.929687 2.015625-2.050781-.011719-1.105469-.921875-2.007812-2.03125-2.007812l-23.152344.191406c-.585937.003906-1.140625.265625-1.523437.71875-.382813.441406-.554688 1.039062-.46875 1.601562l4.773437 31.90625-3.292969-1.40625c-4.226562-1.804687-8.367187-3.6875-12.316406-5.601562-1.640625-.785156-3.425781-1.679688-5.609375-2.8125l-1.628906-.847656.703125-1.695313c.121094-.292969.175781-.574219.160156-.867187l-3.46875-76.527344 1.667969-.347656c4.328125-.898438 8.191406-3.308594 10.589844-6.605469 4.6875-6.402344 4.191406-16.019531-1.125-21.902344-3.191407-3.539063-7.804688-5.566406-12.664063-5.566406-1.539062 0-3.089844.199219-4.601562.597656-6.375 1.671875-11.203125 6.582031-12.601563 12.816406-1.730469 7.734375 2.566407 16.355469 9.785157 19.628907 1.046874.472656 2.179687.835937 3.371093 1.085937l1.523438.3125 3.503906 77.40625-3.144531-1.769531c-13.964844-7.859375-27.535156-17.207032-41.492188-28.582032l-.914062-.746093.210937-1.15625c.042969-.242188.050781-.429688.027344-.605469l-4.738281-34.863281 7.578125-.011719 4.902343-.019531c1.113282-.003907 2.023438-.914063 2.027344-2.027344l.058594-28.355469c0-.539062-.210938-1.046875-.59375-1.433594-.382812-.382812-.890625-.59375-1.433594-.59375-6.34375-.003906-12.691406-.011718-19.039062-.011718-4.6875 0-9.371094.003906-14.058594.011718-1.09375.007813-2.003906.898438-2.023438 1.988282l-.488281 24.902344c-.042969 1.550781.121094 3.734374 1.964844 4.933593 1.0625.679688 2.246094.679688 2.882813.679688l14.125-.035157 4.523437 33.257813-4.007813-3.472656c-15.613281-13.539063-29.789062-27.914063-41.601562-40.195313-.222656-.230468-.644531-.644531-1.21875-1.199218-6.597656-6.4375-10.628906-11.015626-11.992188-13.621094l-.605468-1.160156.820312-1.019532c3.992188-4.953125 7.914063-10.105468 11.375-14.648437l.589844-.773438 65.15625-.894531c.558594-.007812 1.082031-.242188 1.460938-.660156.375-.414063.570312-.96875.53125-1.527344l-2.25-30.792969 31.078124.277344.238282 1.707031c.960937 6.957032 5.890625 12.6875 11.980468 13.9375.902344.183594 1.863282.277344 2.855469.277344 4.566407 0 9.378907-2.132812 13.207031-5.851562 4.003907-3.886719 6.441407-8.792969 6.859376-13.8125.46875-5.636719-1.796876-11.183594-5.914063-14.472657-2.648437-2.117187-5.640625-3.191406-8.894531-3.191406-1.855469 0-3.761719.363281-5.667969 1.074219-6.210937 2.304687-11.914063 8.40625-13.867187 14.835937l-.433594 1.429688-33.605469-.300781c-.578125 0-1.109375.234374-1.511719.65625-.382812.410156-.578125.957031-.535156 1.53125l2.253906 30.84375-59.820312.824218 2.515625-3.273437c8.34375-10.871094 17.496093-22.257813 27.839843-31.898438 14.238282-13.296875 30.039063-25.339843 46.953126-35.796875l2.871093-1.773437 1.40625 26.5c.058594 1.074219.945313 1.914062 2.023438 1.914062h.160156c1.09375-.082031 1.933594-1.03125 1.875-2.132812l-1.527344-28.605469 1.0625-.613281c45.878907-26.515625 97.390625-40.675781 148.960938-40.949219h1.339843c46.246094 0 93.308594 11.371094 136.097657 32.882812l1.28125.644532-.199219 1.417968c-.007812.066407-.019531.132813-.035156.199219l-4.269532 65.875c-.035156.554688.160157 1.105469.535157 1.503907.382812.417968.921875.652343 1.476562.65625l22.625.1875-.152343 7.285156c-.027344 1.550781.148437 3.742187 1.972656 4.917968 1.078125.691407 2.269531.691407 2.910156.691407l25.414062-.070313 5.265626-.019531c1.113281-.003906 2.023437-.914063 2.027343-2.03125.019531-9.496094.042969-18.921875.050781-28.351563.003907-.542968-.207031-1.050781-.59375-1.441406-.378906-.382812-.890624-.597656-1.425781-.597656-4.535156-.003906-9.070312-.003906-13.601562-.003906-6.5 0-12.996094.003906-19.496094.015625-1.097656 0-2.003906.890625-2.023437 1.988281l-.269532 13.546875-20.523437-.164063 4.128906-63.640624 2.742187 1.476562c35.605469 19.175781 67.542969 45.429688 92.363282 75.917969l2.566406 3.152343-10.875.300782c-5.8125.175781-10.953125.320312-14.972656.339844-.542969.003906-1.050782.21875-1.429688.601562-.382812.386719-.59375.898438-.589844 1.441406.007813 1.109375.917969 2.019532 2.03125 2.019532 4.082032-.019532 9.460938-.171876 15.078126-.339844 4.648437-.136719 9.125-.261719 12.84375-.308594l1.015624-.015625.609376.8125c1.660156 2.203125 3.25 4.367187 4.726562 6.425781l.804688 1.121094-.761719 1.148438c-2.644531 3.992187-5.539063 8.113281-8.601563 12.253906l-.671875.910156-1.125-.105469c-.109375-.011719-.214843-.023437-.328125-.023437l-70.382812 3.71875-.214844-1.867188c-.179688-1.546875-.480469-2.914062-.929688-4.183594-3.0625-8.726562-11.378906-14.621093-20.695312-14.664062h-.117188c-8.761718 0-16.070312 5.140625-19.070312 13.417969-.8125 2.234375-1.222656 4.625-1.222656 7.109375 0 6.78125 3.011718 13.210937 8.054687 17.203125 3.65625 2.914062 8.367188 4.515625 13.265625 4.515625 4.328125 0 8.570313-1.285156 11.941406-3.621094 4.03125-2.789062 7.054688-7.300781 8.296876-12.382812l.351562-1.445313 69.171875-3.652344-2.777344 3.480469c-19.777343 24.761719-43.523437 46.363281-70.574219 64.210938l-2.957031 1.953124-1.367187-33.992187 27.0625-2.730469c1.113281-.117187 1.925781-1.113281 1.8125-2.222656-.101563-1.03125-.980469-1.828125-2.003906-1.828125-.066407 0-.136719.003906-.210938.011719l-28.976562 2.917968c-1.0625.105469-1.863282 1.03125-1.820313 2.105469l1.449219 35.933594c.003906.148437.035156.304687.105468.53125l.445313 1.476563-1.3125.808593c-4.308594 2.65625-8.324219 5.015625-12.273437 7.214844-6.324219 3.515625-12.789063 6.832031-19.214844 9.851563l-2.871094 1.351562.152344-22.058594 1.566406-.378906c1.796875-.386719 3.488281-1.019531 5.027344-1.878906 6.796875-3.84375 10.71875-12.214844 9.316406-19.90625-1.46875-8.097656-7.8125-13.96875-16.167969-14.953125-.816406-.09375-1.644531-.144531-2.457031-.144531-7.589844 0-14.183594 4.269531-17.203125 11.144531-3.15625 7.195312-1.199219 16.230469 4.652344 21.476562 2.570312 2.304688 5.859375 3.839844 9.515625 4.433594l1.691406.277344-.164062 21.792969c0 .101562.019531.210937.039062.316406l.285156 1.558594-1.453125.632812c-36.214843 15.824219-75.484375 24.621094-113.566406 25.4375-1.789063.042969-3.5625.070312-5.382813.070312zm.070312-235.660156c-9.679688 0-19.902344 1.898438-31.25 5.800781-13.957031 4.796875-26.941406 12.511719-37.542969 22.308594-20.851562 19.289063-33.230469 46.632813-33.96875 75.023437-.597656 23.050782 6.867188 45.605469 20.476563 61.875 12.007812 14.359376 29.289062 24.984376 49.96875 30.726563 10.402344 2.890625 21.03125 4.355469 31.585937 4.355469 14.339844 0 27.953125-2.648438 40.46875-7.875 26.433594-11.035156 47.371094-33.917969 56.015625-61.207032 8.648438-27.304687 4.699219-58.070312-10.554687-82.300781-7.824219-12.429687-21.324219-28.535156-56.59375-42.90625-9.578125-3.902343-18.933594-5.800781-28.605469-5.800781zm0 0" fill="#fff"/><path d="m511.273438 132.144531c-2.34375-3.351562-4.765626-6.652343-7.253907-9.910156-.214843-.410156-.492187-.78125-.832031-1.089844-27.167969-35.214843-62.726562-64.746093-103.574219-85.894531-45.027343-23.3125-94.699219-35.488281-143.574219-35.24609375-53.066406.27343775-106.011718 14.94140575-153.101562 42.41406275-19.816406 11.558593-38.25 25.242187-54.785156 40.664062-12.734375 11.875-23.324219 25.796875-33.566406 39.257813-4.324219 5.6875-8.796876 11.5625-13.347657 17.171875-3.832031 4.726562 1.421875 11.398437 13.148438 22.839843.511719.496094.890625.867188 1.085937 1.070313 28.527344 29.65625 62.703125 63.105469 107.363282 84.691406 40.164062 19.414063 84.84375 29.675781 129.234374 29.671875 2.097657.007813 4.199219-.023437 6.296876-.066406 49.300781-1.066406 98.984374-14.804688 143.671874-39.726562 44.691407-24.917969 82.492188-59.964844 109.3125-101.34375.894532-1.378907.863282-3.160157-.078124-4.503907zm-402.085938 20.851563c-4.625-2.09375-7.480469-7.828125-6.371094-12.78125.910156-4.070313 3.980469-7.164063 8.214844-8.277344s8.4375.070312 11.230469 3.167969c3.402343 3.765625 3.730469 10.164062.738281 14.261719-2.996094 4.097656-9.191406 5.726562-13.8125 3.628906zm256.75 59.699218c-3.894531-3.5-5.25-9.746093-3.148438-14.527343 2.457032-5.59375 7.585938-7.507813 11.820313-7.507813.542969 0 1.074219.03125 1.582031.09375 4.492188.527344 9.71875 3.433594 10.910156 10.007813.9375 5.15625-1.789062 10.976562-6.339843 13.542969-4.5625 2.574218-10.9375 1.882812-14.824219-1.609376zm128.617188-65.980468c-.210938-.023438-.421876-.042969-.644532-.035156l-68.484375 3.617187c-.175781-1.566406-.503906-3.117187-1.03125-4.613281-3.34375-9.519532-12.414062-15.949219-22.574219-15.996094-.039062 0-.078124 0-.121093 0-9.632813 0-17.65625 5.636719-20.953125 14.738281-3.367188 9.285157-.226563 20.453125 7.46875 26.558594 4.136718 3.285156 9.332031 4.941406 14.515625 4.941406 4.617187 0 9.230469-1.316406 13.078125-3.976562 4.601562-3.179688 7.78125-8.152344 9.097656-13.550781l63.234375-3.339844c-19.550781 24.492187-43.277344 46.09375-70.105469 63.789062l-1.152344-28.566406 25.191407-2.542969c2.214843-.222656 3.828125-2.199219 3.605469-4.414062-.222657-2.214844-2.203126-3.828125-4.414063-3.605469l-28.964844 2.921875c-2.121093.214844-3.707031 2.042969-3.621093 4.171875l1.445312 35.9375c.011719.363281.089844.699219.191406 1.027344-4.003906 2.476562-8.070312 4.871094-12.199218 7.171875-6.269532 3.496093-12.640626 6.757812-19.09375 9.796875l.128906-17.285156c0-.011719-.003906-.027344-.003906-.042969 1.945312-.417969 3.832031-1.105469 5.578124-2.089844 7.519532-4.242187 11.855469-13.496094 10.3125-22.003906-1.632812-8.984375-8.660156-15.492188-17.902343-16.578125-9.457031-1.113282-17.984375 3.667968-21.722657 12.179687-3.5 7.957031-1.335937 17.953125 5.144532 23.769531 2.9375 2.636719 6.648437 4.292969 10.53125 4.921876l-.148438 20.078124c-.003906.234376.027344.464844.066406.691407-36.089843 15.769531-74.574218 24.441406-112.808593 25.269531-2.042969.046875-4.050781.074219-6.125.066406-35.636719 0-71.46875-6.804687-104.867188-19.796875-.003906-.167969 0-.335937-.023437-.507812l-4.1875-27.960938 18.496094-.15625c2.226562-.019531 4.015624-1.839843 3.996093-4.066406-.019531-2.210937-1.820312-3.996094-4.03125-3.996094-.011719 0-.023437 0-.035156 0l-23.136719.195313c-1.164062.011718-2.273437.527344-3.03125 1.414062-.757812.886719-1.09375 2.058594-.921875 3.214844l4.246094 28.347656c-4.117187-1.757812-8.199219-3.609375-12.230469-5.554687-1.875-.90625-3.726562-1.84375-5.566406-2.792969.222656-.53125.34375-1.113281.316406-1.730469l-3.386718-74.820312c4.652343-.972657 8.980468-3.535157 11.800781-7.386719 5.210937-7.136719 4.660156-17.863281-1.261719-24.421875-4.78125-5.300781-12.164062-7.429687-19.265625-5.566406-7.097656 1.867187-12.476563 7.351562-14.035156 14.316406-1.929688 8.625 2.859375 18.238281 10.910156 21.886719 1.214844.550781 2.484375.957031 3.78125 1.222656l3.273437 72.253906c-14.886718-8.386718-28.554687-18.085937-41.207031-28.390625.070313-.398437.097657-.808593.042969-1.226562l-4.433594-32.59375c1.765625-.003907 3.527344-.007813 5.289063-.015625l4.910156-.015625c2.21875-.007813 4.015625-1.804688 4.019531-4.023438.019532-9.449219.039063-18.902343.054688-28.351562.003906-1.070313-.421875-2.097657-1.175782-2.855469-.753906-.757812-1.78125-1.183594-2.851562-1.183594-11.03125-.011718-22.0625-.011718-33.09375.007813-2.191406.003906-3.980469 1.757812-4.023438 3.949219l-.492187 24.902343c-.023437 1.167969-.09375 4.71875 2.886719 6.640625 1.5.964844 3.0625 1.003906 3.964844 1.003906h.125c4.085937-.007812 8.167968-.023437 12.253906-.035156l3.570312 26.269532c-15.195312-13.164063-28.890625-26.988282-41.46875-40.066407-.230468-.238281-.671875-.671875-1.269531-1.253906-8.21875-8.015625-10.8125-11.578125-11.613281-13.101563 3.894531-4.84375 7.699218-9.820312 11.40625-14.691406l64.183594-.882812c1.109374-.015625 2.164062-.488282 2.914062-1.308594.75-.816406 1.128906-1.910156 1.050781-3.015625l-2.089843-28.636719 27.171874.242188c1.042969 7.511718 6.453126 14.164062 13.570313 15.617187 1.066406.21875 2.152344.328125 3.253906.328125 5.066407-.003906 10.335938-2.277344 14.601563-6.421875 4.355468-4.230469 7.003906-9.585937 7.457031-15.078125.519531-6.296875-2.03125-12.507812-6.65625-16.207031-4.722656-3.773437-10.585937-4.636719-16.515625-2.429687-6.914062 2.570312-12.957031 9.148437-15.078125 16.136718l-32.109375-.292968c-1.136719-.011719-2.203125.453124-2.972656 1.273437-.773438.820313-1.164063 1.929687-1.082032 3.050781l2.09375 28.738282-53.566406.738281c8.503906-11.070313 17.410156-22.144531 27.613282-31.660157 14.21875-13.261718 29.882812-25.195312 46.640624-35.558593l1.230469 23.132812c.113281 2.148438 1.894531 3.816407 4.023438 3.816407.070312 0 .144531 0 .214843-.003907 2.226563-.121093 3.929688-2.019531 3.8125-4.242187l-1.457031-27.378906c45.59375-26.34375 96.726563-40.410157 147.96875-40.675782 46.375-.222656 93.53125 11.050782 136.527344 32.667969-.007813.070313-.027344.132813-.03125.203125l-4.285156 66.011719c-.074219 1.105469.3125 2.195312 1.070312 3.007812.753907.8125 1.808594 1.277344 2.917969 1.285157l20.597656.164062-.101562 5.265625c-.023438 1.167969-.09375 4.722656 2.886718 6.640625 1.511719.972656 3.089844 1.007812 3.992188 1.007812h.101562c8.4375-.011718 16.875-.042968 25.316407-.074218l5.269531-.015625c2.214844-.007813 4.011719-1.804688 4.015625-4.023438.023437-9.449219.042969-18.902343.058594-28.351562 0-1.070313-.421875-2.097657-1.175781-2.855469-.757813-.757812-1.78125-1.183594-2.851563-1.183594-11.03125-.011718-22.0625-.015625-33.097656.007813-2.191407.003906-3.980469 1.757812-4.023438 3.949219l-.226562 11.574218-16.429688-.132812 3.792969-58.421875c35.652344 19.199219 66.984375 44.988281 91.757812 75.421875-2.230468.058594-4.535156.125-6.816406.191406-5.3125.152344-10.808594.3125-14.921875.335938-2.226562.011718-4.019531 1.824218-4.007812 4.050781.011719 2.21875 1.8125 4.007812 4.03125 4.007812h.019531c4.207031-.019531 9.753906-.183593 15.113281-.335937 4.453125-.128906 9.023438-.261719 12.808594-.316406 1.597656 2.113281 3.167969 4.238281 4.703125 6.390624-2.730469 4.128907-5.585938 8.183594-8.539062 12.175782zm-92.855469-8.964844h.082031c5.210938.027344 12.269531 2.820312 15.007812 10.609375 2.078126 5.914063-.367187 13.367187-5.566406 16.960937-5.234375 3.617188-12.972656 3.339844-18-.648437-4.976562-3.949219-7.085937-11.472656-4.898437-17.5v.003906c2.140625-5.910156 7.136719-9.425781 13.375-9.425781zm-353.675781 25.847656.402343-20.378906c8.367188-.007812 16.730469-.007812 25.09375-.003906-.011719 6.769531-.023437 13.539062-.039062 20.308594l-.90625.003906c-8.183594.027344-16.367188.058594-24.550781.070312zm72.90625-71.554687c.054687-.265625.089843-.539063.089843-.820313 0-.027344-.003906-.054687-.007812-.078125.023437-.15625.035156-.308593.0625-.460937.925781-4.964844 5.53125-10.292969 10.488281-12.136719 1.230469-.460937 2.414062-.6875 3.542969-.6875 1.859375 0 3.574219.621094 5.125 1.859375 2.519531 2.015625 3.953125 5.644531 3.65625 9.246094-.289063 3.496094-2.125 7.125-5.042969 9.957031-2.527344 2.457031-6.652344 4.789063-10.621094 3.980469-4.269531-.875-7.53125-5.921875-7.292968-10.859375zm299.921874 24.210937.402344-20.375c8.367188-.011718 16.730469-.011718 25.097656-.003906-.011718 6.769531-.027343 13.539062-.042968 20.304688l-1.261719.003906c-8.066406.03125-16.132813.058594-24.195313.070312zm0 0" fill="#231f20"/><path d="m281.484375 40.011719c-19.433594-7.921875-38.324219-7.933594-61.257813-.042969-14.234374 4.898438-27.464843 12.761719-38.25 22.734375-21.246093 19.648437-33.863281 47.511719-34.613281 76.441406-.613281 23.527344 7.019531 46.566407 20.941407 63.207031 12.269531 14.667969 29.894531 25.515626 50.972656 31.375 10.644531 2.957032 21.472656 4.425782 32.113281 4.425782 14.398437 0 28.449219-2.691406 41.246094-8.03125 26.960937-11.253906 48.328125-34.597656 57.148437-62.453125 8.824219-27.851563 4.796875-59.238281-10.769531-83.960938-7.980469-12.683593-21.738281-29.113281-57.53125-43.695312zm60.617187 125.222656c-8.117187 25.621094-27.765624 47.09375-52.566406 57.445313-20.59375 8.59375-44.777344 9.757812-68.097656 3.277343-19.496094-5.417969-35.730469-15.371093-46.949219-28.78125-12.675781-15.152343-19.625-36.230469-19.066406-57.824219.6875-26.375 12.660156-52.816406 32.03125-70.730468 9.96875-9.222656 22.210937-16.492188 35.398437-21.03125 20.953126-7.207032 38.097657-7.242188 55.589844-.113282 26.625 10.847657 42.703125 22.964844 53.753906 40.523438 14.316407 22.742188 18.019532 51.613281 9.90625 77.234375zm0 0" fill="#231f20"/><path d="m264.277344 94.59375c-8.519532-3.472656-16.765625-3.492188-26.730469-.0625-6.132813 2.109375-11.835937 5.5-16.488281 9.800781-9.160156 8.472657-14.601563 20.484375-14.925782 32.957031-.261718 10.199219 3.0625 20.199219 9.121094 27.445313 5.332032 6.371094 12.953125 11.074219 22.042969 13.601563 4.5625 1.269531 9.203125 1.898437 13.769531 1.898437 6.203125 0 12.265625-1.164063 17.792969-3.472656 11.667969-4.867188 20.910156-14.96875 24.730469-27.023438 3.820312-12.050781 2.078125-25.632812-4.660156-36.335937-6.578126-10.449219-16.628907-15.542969-24.652344-18.808594zm21.625 52.707031c-3.109375 9.820313-10.640625 18.054688-20.148438 22.019531-7.933594 3.3125-17.273437 3.753907-26.300781 1.246094-5.234375-1.457031-12.609375-4.546875-18.015625-11.003906-4.816406-5.761719-7.457031-13.804688-7.242188-22.066406.261719-10.160156 4.875-20.34375 12.335938-27.246094 3.839844-3.546875 8.554688-6.347656 13.640625-8.097656 8.09375-2.785156 14.390625-2.8125 21.0625-.09375 10.394531 4.234375 16.636719 8.914062 20.875 15.640625 5.484375 8.714843 6.90625 19.785156 3.792969 29.601562zm0 0" fill="#231f20"/></svg>